HIERARCHY
ROOT hip
{
  OFFSET 0 0 0
  CHANNELS 6 Xposition Yposition Zposition Zrotation Yrotation Xrotation
  JOINT abdomen
  {
    OFFSET 0 20.6881 -0.73152
    CHANNELS 3 Zrotation Xrotation Yrotation
    JOINT chest
    {
      OFFSET 0 11.7043 -0.48768
      CHANNELS 3 Zrotation Xrotation Yrotation
      JOINT neck
      {
        OFFSET 0 22.1894 -2.19456
        CHANNELS 3 Zrotation Xrotation Yrotation
        JOINT head
        {
          OFFSET -0.24384 7.07133 1.2192
          CHANNELS 3 Zrotation Xrotation Yrotation
          JOINT leftEye
          {
            OFFSET 4.14528 8.04674 8.04672
            CHANNELS 3 Zrotation Xrotation Yrotation
            End Site
            {
              OFFSET 1 0 0
            }
          }
          JOINT rightEye
          {
            OFFSET -3.6576 8.04674 8.04672
            CHANNELS 3 Zrotation Xrotation Yrotation
            End Site
            {
              OFFSET 1 0 0
            }
          }
        }
      }
      JOINT rCollar
      {
        OFFSET -2.68224 19.2634 -4.8768
        CHANNELS 3 Zrotation Xrotation Yrotation
        JOINT rShldr
        {
          OFFSET -8.77824 -1.95073 1.46304
          CHANNELS 3 Zrotation Xrotation Yrotation
          JOINT rForeArm
          {
            OFFSET -28.1742 -1.7115 0.48768
            CHANNELS 3 Zrotation Xrotation Yrotation
            JOINT rHand
            {
              OFFSET -22.5879 0.773209 7.07136
              CHANNELS 3 Zrotation Xrotation Yrotation
              JOINT rThumb1
              {
                OFFSET -1.2192 -0.487915 3.41376
                CHANNELS 3 Zrotation Xrotation Yrotation
                JOINT rThumb2
                {
                  OFFSET -3.37035 -0.52449 3.41376
                  CHANNELS 3 Zrotation Xrotation Yrotation
                  End Site
                  {
                    OFFSET -1.78271 -1.18214 1.43049
                  }
                }
              }
              JOINT rIndex1
              {
                OFFSET -7.75947 0.938293 5.60832
                CHANNELS 3 Zrotation Xrotation Yrotation
                JOINT rIndex2
                {
                  OFFSET -2.54057 -0.884171 1.56538
                  CHANNELS 3 Zrotation Xrotation Yrotation
                  End Site
                  {
                    OFFSET -1.62519 -0.234802 1.16502
                  }
                }
              }
              JOINT rMid1
              {
                OFFSET -8.24714 1.18213 3.41376
                CHANNELS 3 Zrotation Xrotation Yrotation
                JOINT rMid2
                {
                  OFFSET -3.10165 -0.590103 1.0647
                  CHANNELS 3 Zrotation Xrotation Yrotation
                  End Site
                  {
                    OFFSET -2.48547 -0.328903 0.83742
                  }
                }
              }
              JOINT rRing1
              {
                OFFSET -8.82822 0.546677 1.51678
                CHANNELS 3 Zrotation Xrotation Yrotation
                JOINT rRing2
                {
                  OFFSET -2.60934 -0.819778 -0.0198488
                  CHANNELS 3 Zrotation Xrotation Yrotation
                  End Site
                  {
                    OFFSET -2.33842 -0.294052 0.168128
                  }
                }
              }
              JOINT rPinky1
              {
                OFFSET -8.27202 -0.0477905 -0.4584
                CHANNELS 3 Zrotation Xrotation Yrotation
                JOINT rPinky2
                {
                  OFFSET -1.82734 -0.647385 -0.700984
                  CHANNELS 3 Zrotation Xrotation Yrotation
                  End Site
                  {
                    OFFSET -1.69225 -0.51767 -0.607171
                  }
                }
              }
            }
          }
        }
      }
      JOINT lCollar
      {
        OFFSET 2.68224 19.2634 -4.8768
        CHANNELS 3 Zrotation Xrotation Yrotation
        JOINT lShldr
        {
          OFFSET 8.77824 -1.95073 1.46304
          CHANNELS 3 Zrotation Xrotation Yrotation
          JOINT lForeArm
          {
            OFFSET 28.1742 -1.7115 0.48768
            CHANNELS 3 Zrotation Xrotation Yrotation
            JOINT lHand
            {
              OFFSET 22.5879 0.773209 7.07136
              CHANNELS 3 Zrotation Xrotation Yrotation
              JOINT lThumb1
              {
                OFFSET 1.2192 -0.487915 3.41376
                CHANNELS 3 Zrotation Xrotation Yrotation
                JOINT lThumb2
                {
                  OFFSET 3.37035 -0.52449 3.41376
                  CHANNELS 3 Zrotation Xrotation Yrotation
                  End Site
                  {
                    OFFSET 1.78271 -1.18214 1.43049
                  }
                }
              }
              JOINT lIndex1
              {
                OFFSET 7.75947 0.938293 5.60832
                CHANNELS 3 Zrotation Xrotation Yrotation
                JOINT lIndex2
                {
                  OFFSET 2.54057 -0.884171 1.56538
                  CHANNELS 3 Zrotation Xrotation Yrotation
                  End Site
                  {
                    OFFSET 1.62519 -0.234802 1.16502
                  }
                }
              }
              JOINT lMid1
              {
                OFFSET 8.24714 1.18213 3.41376
                CHANNELS 3 Zrotation Xrotation Yrotation
                JOINT lMid2
                {
                  OFFSET 3.10165 -0.590103 1.0647
                  CHANNELS 3 Zrotation Xrotation Yrotation
                  End Site
                  {
                    OFFSET 2.48547 -0.328903 0.83742
                  }
                }
              }
              JOINT lRing1
              {
                OFFSET 8.82822 0.546677 1.51678
                CHANNELS 3 Zrotation Xrotation Yrotation
                JOINT lRing2
                {
                  OFFSET 2.60934 -0.819778 -0.0198488
                  CHANNELS 3 Zrotation Xrotation Yrotation
                  End Site
                  {
                    OFFSET 2.33842 -0.294052 0.168128
                  }
                }
              }
              JOINT lPinky1
              {
                OFFSET 8.27202 -0.0477905 -0.4584
                CHANNELS 3 Zrotation Xrotation Yrotation
                JOINT lPinky2
                {
                  OFFSET 1.82734 -0.647385 -0.700984
                  CHANNELS 3 Zrotation Xrotation Yrotation
                  End Site
                  {
                    OFFSET 1.69225 -0.51767 -0.607171
                  }
                }
              }
            }
          }
        }
      }
    }
  }
  JOINT rButtock
  {
    OFFSET -8.77824 4.35084 1.2192
    CHANNELS 3 Zrotation Xrotation Yrotation
    JOINT rThigh
    {
      OFFSET 0 -1.70687 -2.19456
      CHANNELS 3 Zrotation Xrotation Yrotation
      JOINT rShin
      {
        OFFSET 0 -36.8199 0.73152
        CHANNELS 3 Zrotation Xrotation Yrotation
        JOINT rFoot
        {
          OFFSET 0.73152 -45.1104 -5.12064
          CHANNELS 3 Zrotation Xrotation Yrotation
          End Site
          {
            OFFSET -1.1221 -3.69964 12.103
          }
        }
      }
    }
  }
  JOINT lButtock
  {
    OFFSET 8.77824 4.35084 1.2192
    CHANNELS 3 Zrotation Xrotation Yrotation
    JOINT lThigh
    {
      OFFSET 0 -1.70687 -2.19456
      CHANNELS 3 Zrotation Xrotation Yrotation
      JOINT lShin
      {
        OFFSET 0 -36.8199 0.73152
        CHANNELS 3 Zrotation Xrotation Yrotation
        JOINT lFoot
        {
          OFFSET -0.73152 -45.1104 -5.12064
          CHANNELS 3 Zrotation Xrotation Yrotation
          End Site
          {
            OFFSET 1.1221 -3.69964 12.103
          }
        }
      }
    }
  }
}
MOTION
Frames:	8
Frame Time:	0.03333
0.0 0.0 0.0 0.0 0.0 0.0 0.0 0.0 0.0 0.0 0.0 0.0 0.0 0.0 0.0 0.0 0.0 0.0 0.0 0.0 0.0 0.0 0.0 0.0 0.0 0.0 0.0 0.0 0.0 0.0 0.0 0.0 0.0 0.0 0.0 0.0 0.0 0.0 0.0 0.0 0.0 0.0 0.0 0.0 0.0 0.0 0.0 0.0 0.0 0.0 0.0 0.0 0.0 0.0 0.0 0.0 0.0 0.0 0.0 0.0 0.0 0.0 0.0 0.0 0.0 0.0 0.0 0.0 0.0 0.0 0.0 0.0 0.0 0.0 0.0 0.0 0.0 0.0 0.0 0.0 0.0 0.0 0.0 0.0 0.0 0.0 0.0 0.0 0.0 0.0 0.0 0.0 0.0 0.0 0.0 0.0 0.0 0.0 0.0 0.0 0.0 0.0 0.0 0.0 0.0 0.0 0.0 0.0 0.0 0.0 0.0 0.0 0.0 0.0 0.0 0.0 0.0 0.0 0.0 0.0 0.0 0.0 0.0 0.0 0.0 0.0 0.0 0.0 0.0 0.0 0.0 0.0
0.0755 68.0857 0.0718 -179.166389 -73.563389 178.509004 -1.078534 0.507441 109.780872 10.460551 -0.890545 -93.068253 13.209757 -14.521404 68.542433 41.29518 30.854257 100.224462 4.189107 -4.010256 -87.498702 152.790808 -1.163819 4.806309 -86.056192 -35.22829 169.269299 8.15108 -13.682936 6.072635 5.392392 -63.335987 166.847789 11.34841 -23.141518 -0.692202 -106.468905 64.148985 57.130929 -115.068301 -4.24519 66.978564 89.942028 -25.433554 110.275279 -173.928263 -65.877779 -138.201489 32.074869 57.023308 -71.793647 -150.336254 52.009865 42.728351 85.736099 -3.736862 111.955315 90.598014 39.285342 84.649033 179.794835 37.709232 46.33505 -153.409018 -18.713349 -80.253677 88.548654 -27.614027 -161.880788 83.087171 74.499794 -93.476336 172.023387 14.326087 15.341379 -174.446862 5.491017 -146.261759 -179.754971 -7.634093 -114.501583 4.715743 22.623132 140.705991 63.04324 56.826708 -16.374529 142.860146 -20.062888 13.495257 169.267257 1.226155 175.997809 -173.499979 12.502616 171.750625 51.15861 30.43848 137.000385 -109.156571 44.595449 177.292084 -150.091616 -3.919924 -46.777239 -88.889129 1.339859 69.420524 41.777583 39.097497 112.522633 -15.765711 51.411989 -160.140742 -0.083864 -6.278142 0.202747 -61.011009 57.745946 70.215669 43.118106 -22.422657 67.836316 0.928635 48.866834 -0.687322 3.795301 5.096745 145.154336 -73.758431 -7.11356 96.844614
0.5485 69.96170000000001 0.861 -1.366134 -30.324898 4.964496 1.233819 -5.373142 34.445005 3.370313 1.926998 -35.537346 14.761714 2.408495 128.028153 -6.584811 21.255998 -131.559538 -3.351271 -0.444901 15.120065 -38.43093 -2.43628 6.982367 -77.962574 54.757293 89.913998 80.975144 -62.747887 83.777398 170.118847 -4.94322 73.977139 -160.775734 7.615651 132.073039 -176.111112 5.464701 78.401704 -151.135272 3.861085 53.338244 -129.171738 10.191921 100.594248 -151.10189 -21.827267 99.670077 -42.924906 52.948934 31.847796 -153.325903 -48.851019 165.590455 -8.998823 3.943257 -16.795726 62.797558 -26.69725 81.306587 -56.310491 44.047955 128.331912 -125.883308 37.676466 -97.872289 156.84032 -4.930406 -159.51182 168.119424 84.198771 114.046543 -177.820517 -28.20287 -97.807685 156.844153 35.401151 -126.115725 -133.807701 -54.701668 -62.211512 26.856257 -13.25182 -45.486251 -18.605339 -76.001079 18.288087 91.634709 53.367126 -83.132841 4.487208 -20.162041 7.866718 -81.556251 -66.884951 -62.282827 -4.828864 44.62205 4.495405 -97.96247 -59.638054 -102.666178 15.59439 -17.352138 1.906134 110.410752 60.343132 -162.098451 -104.138804 64.475576 -41.86137 118.892252 29.396184 -77.228083 -43.46625 -11.086684 -86.787238 -148.492522 47.308076 168.24549 1.026469 -0.04015 87.760274 -20.367689 -14.586721 54.551588 36.754691 -18.989592 98.656651 -144.606253 58.585807 176.943988
-0.21719999999999998 69.18520000000001 2.2585 0.270892 -29.805117 1.264325 -1.784321 0.226034 -0.067329 12.627266 -2.478686 -0.22566 16.328448 14.774444 88.140377 -26.992836 17.067512 -64.405577 177.459235 -0.815006 35.564658 22.117466 1.230793 6.291324 15.80363 -42.661674 14.339709 38.111637 14.530564 -4.583516 -12.017396 47.442371 89.84448 -4.798695 -69.302815 -12.356592 -44.176114 66.637637 42.573708 172.757651 0.002843 141.271627 -101.177242 15.41852 107.678347 -59.291104 32.249119 64.453085 -173.726521 -23.25262 123.082927 -144.160094 36.446766 72.90041 -57.137493 29.278748 32.471765 -162.066124 -47.859563 166.368262 142.200328 -48.62688 3.141718 162.558625 27.501148 75.827211 132.608228 -35.537518 160.780995 -81.333046 12.139065 -13.977222 -140.928273 -78.249273 -53.211785 -170.964196 4.62284 -152.331791 93.20066 48.499577 -57.041589 11.045101 -27.031022 -25.301774 -108.881838 -89.050208 -77.26769 151.37669 -61.52118 -86.00919 -7.620387 1.22915 23.918391 94.713839 69.999669 -46.125537 15.118352 0.241364 6.690985 117.552119 61.813436 -160.64701 -32.289465 62.555667 43.505747 11.017465 -26.659758 0.866009 -109.602475 8.839439 -86.867585 97.745456 60.816788 80.516984 58.096903 -4.479778 176.864842 51.244767 44.028328 39.514498 40.03145 -14.473272 29.015619 -23.853687 -6.428683 86.912718 48.065967 -1.775101 -90.294086 17.348916 2.176618 7.869283
0.18910000000000002 71.7042 3.8052999999999995 -2.825767 -21.415365 4.869121 5.747733 -4.465947 -180.0 -12.742524 0.760328 175.214069 2.679878 6.359688 71.749273 -20.592477 4.001918 -47.638282 54.859517 12.030237 22.952776 -130.69924 6.314848 13.709011 27.479617 -55.75322 27.983446 -133.933837 -6.506196 -165.532151 -140.116957 -67.438072 -68.685992 -2.660069 -25.534303 -7.844035 -8.527163 14.187229 -3.956814 44.223588 -55.019843 21.335532 -69.349857 19.50912 38.937668 -21.880925 28.023575 68.024318 145.436683 -60.606699 126.191162 159.060257 35.909461 -177.256652 -141.187346 -1.46092 -178.942523 41.209083 -13.233502 36.579143 33.964422 33.149256 1.742913 -39.048746 -27.080509 -34.174376 129.732992 -32.876709 155.563674 97.705506 -14.472741 -163.438839 63.570441 18.519027 25.532127 -108.768726 -60.876853 -87.702429 156.817067 -10.731913 -82.722743 134.944864 -39.607788 -87.368872 150.23412 -17.074461 -94.463658 145.141074 -61.892107 -25.596319 11.919395 -11.317871 23.679414 -174.521244 -66.714516 -102.751085 21.42935 9.177366 29.306978 168.700656 -39.740998 -102.972853 126.850289 -72.912331 94.160183 163.860606 -67.20192 133.585413 87.700264 71.054405 82.90421 -169.456634 51.015698 166.534545 16.898584 -72.63151 47.069545 71.751755 -35.330218 159.648439 -68.128909 40.803633 -61.04198 116.03018 30.416463 44.635171 -9.234654 58.760128 -99.016121 -73.339491 70.821077 153.207706
1.4763 69.7729 5.5735 -4.202227 -17.72227 5.782399 4.681781 -0.284494 89.268193 -7.987258 -10.430603 -68.929734 21.556306 9.775565 107.841041 -7.25105 39.919201 -104.622991 1.909937 -0.369949 -21.922636 -116.497718 -23.571573 -37.264392 -161.733569 -28.522559 171.711344 -94.410334 -77.096996 -88.026526 42.13491 79.444751 -158.938111 -168.828136 17.124875 135.382836 80.481861 -48.12517 38.49551 -33.575171 -12.021394 -18.444416 -132.440301 16.396367 100.933009 -137.813578 -14.125039 89.44233 -172.538067 19.210712 124.191501 -28.073855 4.827352 35.621202 -13.541573 41.274104 9.739499 -145.690678 5.028252 -170.468648 -141.015728 15.333189 -137.419791 -158.646449 -11.83745 -144.737305 157.232416 -5.358943 -153.7184 -69.371573 31.995949 14.576571 104.954275 -0.35651 -171.49311 -33.321596 -43.29575 -14.739337 -1.81117 -10.463703 -23.992217 22.465096 5.106561 49.715977 -125.834855 -54.110526 -84.526888 -6.547192 -39.838791 -27.301496 157.112022 47.073199 -135.597365 163.123063 -59.368656 145.969216 5.11496 1.080816 12.323502 7.547859 11.69003 -49.245298 65.7113 -58.098598 41.830626 3.238283 18.001875 0.73806 1.248908 26.407326 -98.309598 62.547397 -4.253728 -76.373562 -23.021992 -62.649407 88.419468 -132.667646 -46.837841 -24.938834 72.739583 11.160366 26.627397 -64.681944 -24.704971 -180.0 -20.669768 -59.288656 -85.122772 -7.127496 2.911829 -108.90156
1.6945000000000001 69.8897 6.7347 -3.464987 -15.546521 9.892219 4.668065 -5.573587 0.648385 9.761088 -10.063437 24.428484 24.475765 7.390942 124.503952 18.091564 37.833791 -129.4585 13.534047 -0.439893 -3.705929 -20.724408 8.333463 -43.446409 -3.794089 -18.119338 -8.006788 32.019706 13.49495 -4.000966 -41.517666 13.340291 112.611871 7.516111 -63.91949 -0.753119 -166.931587 -0.989734 91.797188 -132.666986 -6.946197 52.81568 -171.074345 -68.157421 124.246867 -173.201816 -14.572139 63.664968 166.946977 -36.475885 116.200473 -171.423132 -0.83032 80.890857 -19.347984 43.454331 13.572848 52.855458 73.424802 -38.341176 25.844422 9.126117 17.910215 -130.160888 -0.518488 -100.898606 11.322367 23.643731 -17.920095 -139.73256 -19.345628 -174.544799 110.945356 -21.474252 -150.544306 -61.924896 -63.330038 -44.466165 170.929277 -13.733973 -71.785841 161.480271 -32.300377 -44.270404 154.24876 -11.989429 -132.133618 -57.153 -16.658627 29.50445 61.53571 66.829346 -36.123379 104.747912 42.610398 -36.798506 -0.027555 6.308388 -5.381095 -13.700897 -44.176153 -5.39915 37.121314 -0.856153 30.637143 109.317441 1.905041 176.412203 70.476488 -23.681121 25.615228 -72.813223 -5.980552 -116.026054 -64.177764 -18.146849 -136.970651 -103.432768 -12.386657 -166.855479 -14.392414 13.589911 -30.593422 68.596447 -26.46638 80.091041 12.553723 48.242144 -110.332682 2.599705 63.775866 79.669731
1.1556 69.7921 7.1059 -4.135973 -11.537582 13.574292 6.948617 -14.19996 26.419305 5.452956 -10.984361 -5.356843 2.712885 6.99866 -92.705862 6.811538 -18.008336 102.574846 19.455218 1.994065 11.593464 -1.185888 0.379518 -35.491236 -155.404792 20.651353 153.745334 -179.952945 8.523723 151.000574 54.696187 67.380744 46.018219 -13.988681 -3.94894 4.147372 -80.468775 47.463669 37.67168 -136.514361 -49.224454 89.292488 19.413488 9.846416 -14.476343 132.24376 -0.115712 141.148901 1.287672 -0.576808 11.856573 171.024534 -25.00524 -168.710285 -14.95165 -45.50974 -11.927098 -22.381247 -15.416976 -16.938653 -63.555793 75.205068 135.050136 3.211838 -47.960486 -44.202289 152.849738 -6.634726 -158.085686 -56.322617 6.085201 19.962227 -128.941281 46.903176 78.261608 36.78127 71.827959 -18.536482 -19.945889 -4.560416 -14.511299 154.753579 6.553886 -128.87611 13.645731 36.560228 -1.829006 -115.086079 -70.592694 -120.734525 32.453627 -71.260362 41.205182 101.477275 -53.24538 -164.243761 -9.194934 -13.812532 -1.980998 7.599332 -14.872572 -5.57951 138.641953 4.112044 78.38342 94.764553 33.094491 90.612217 91.495567 6.368787 45.084254 -104.838375 6.258294 -88.345757 -58.316852 5.38447 31.819637 -15.960099 -26.157239 23.647215 -101.75196 67.988483 -46.213698 164.836805 25.110882 6.283056 -15.281747 48.87881 100.655873 -154.949772 1.073298 55.712467
